<svg width="150" height="97" viewBox="0 0 150 97" fill="none" xmlns="http://www.w3.org/2000/svg">
<path d="M20 68C18.3333 55.6667 24.3 29.9 61.5 25.5C63.9189 25.2139 66.2512 24.9589 68.5 24.7328M48.5289 59.7379C50.1533 72.4444 62.5031 67.9262 63 56C63.5 44 75 43.5 76 55.5C77 67.5 84 64.5 84.5 54.5C85 44.5 89.5 41 92.5 54C95.5 67 101.5 64.5 103 53C104.395 42.3084 108.382 38.5316 111.347 48.5M48.5289 59.7379C48.5189 59.6592 48.5092 59.5799 48.5 59.5C47.917 54.4474 47.787 53.3188 47.8659 54M48.5289 59.7379C48.2669 57.469 47.9494 54.7209 47.8659 54M47.8659 54C44.7439 64 39.1 85.9 41.5 93.5L107.5 96C105.883 92.7859 104.142 85.9792 104.599 76.5M111.347 48.5C111.571 49.2538 111.789 50.0861 112 51C115 64 119 63 120 50C121 37 128.5 41.5 131 50C133.5 58.5 139 51 140.5 42C142 33 131.5 29 127 27.5C126.589 27.363 126.095 27.1885 125.5 26.9886M111.347 48.5C106.801 59.2761 104.971 68.7754 104.599 76.5M105.5 88C110.667 88.3333 122 88.4 126 86C131 83 131 80 131 74.5C131 69 128 67.5 128 67C128 66.5 127 67 125.5 70C124 73 123 74.5 121.5 71C120 67.5 119.5 65 118 65C116.5 65 114 68 113 70C112 72 108.697 77.5 104.599 76.5M125.5 26.9886C127.833 24.9924 133.6 20.3 138 17.5C143.5 14 150 10.5 148.5 2L80 0.5C79.5 3.98853 76.5 13.719 68.5 24.7328M125.5 26.9886C119.923 25.1138 105.533 21.0091 68.5 24.7328" stroke="#a8ebb4" stroke-linecap="round"/>
<path d="M20 68C20.6667 72.303 25.8 81.9272 41 86" stroke="#a8ebb4" stroke-linecap="round"/>
<path d="M34 84C17.6667 89 -7.99999 92.9 20 68.5" stroke="#a8ebb4" stroke-linecap="round"/>
<path d="M14 88C4.99999 91.8333 -8.50001 95.5 9.49999 79.5" stroke="#a8ebb4" stroke-linecap="round"/>
</svg>
